<svg xmlns="http://www.w3.org/2000/svg" width="800" height="600"  viewBox="0 0 800 600">
      <defs>  
        <style type="text/css">
        @import url("https://fonts.googleapis.com/css2?family=Poppins");
            .title {
              font-family: "Poppins", sans-serif;
              font-weight: 400;
              font-style: normal; 
              fill: white;
            }
          </style>
        </defs>
          <g>
            <rect width="800" height="600" x="0" y="0" rx="20" ry="20" 
              style="fill:#36454F;stroke-width:10;stroke:white" /> 
          <g transform="translate(20, 20) scale(0.0625)" dominant-baseline="middle" text-anchor="left">
            <svg width="1024" height="1024" viewBox="0 0 1024 1024" fill="none" xmlns="http://www.w3.org/2000/svg">
              <path fill-rule="evenodd" clip-rule="evenodd" d="M8 0C3.58 0 0 3.58 0 8C0 11.54 2.29 14.53 5.47 15.59C5.87 15.66 6.02 15.42 6.02 15.21C6.02 15.02 6.01 14.39 6.01 13.72C4 14.09 3.48 13.23 3.32 12.78C3.23 12.55 2.84 11.84 2.5 11.65C2.22 11.5 1.82 11.13 2.49 11.12C3.12 11.11 3.57 11.7 3.72 11.94C4.44 13.15 5.59 12.81 6.05 12.6C6.12 12.08 6.33 11.73 6.56 11.53C4.78 11.33 2.92 10.64 2.92 7.58C2.92 6.71 3.23 5.99 3.74 5.43C3.66 5.23 3.38 4.41 3.82 3.31C3.82 3.31 4.49 3.1 6.02 4.13C6.66 3.95 7.34 3.86 8.02 3.86C8.7 3.86 9.38 3.95 10.02 4.13C11.55 3.09 12.22 3.31 12.22 3.31C12.66 4.41 12.38 5.23 12.3 5.43C12.81 5.99 13.12 6.7 13.12 7.58C13.12 10.65 11.25 11.33 9.47 11.53C9.76 11.78 10.01 12.26 10.01 13.01C10.01 14.08 10 14.94 10 15.21C10 15.42 10.15 15.67 10.55 15.59C13.71 14.53 16 11.53 16 8C16 3.58 12.42 0 8 0Z" transform="scale(64)" fill="white"/>
            </svg>
          </g>
          <text x="116" y="52" font-size= "50" dominant-baseline="middle" text-anchor="left" class="title">
            honkita</text>   
          <circle r="100" cx="150" cy="200" style="fill:transparent;stroke-width:10;stroke:white"/>
          <rect x="298" y = "100" width="4" height="450" rx="2" ry="2" fill="white"/>
          <circle r="100" cx="450" cy="200" style="fill:transparent;stroke-width:10;stroke:white"/>
          <rect x="598" y = "100" width="4" height="450" rx="2" ry="2" fill="white"/>
          <circle r="50" cx="150" cy="200" fill="transparent"
              stroke="#C6C5B9"
              stroke-width="100"
              stroke-dasharray="100.86684716978733 314"
              transform="rotate(-90 150 200)"/>

          <circle r="10" cx="50" cy="350" fill="#C6C5B9" stroke-width="3px" stroke="white"/>
          <text x="75" y="350" font-size= "20" dominant-baseline="middle" text-anchor="start" class="title">
            Elm: 32.12%
          </text> 

          
<circle r="50" cx="150" cy="200" fill="transparent"
              stroke="#62929E"
              stroke-width="100"
              stroke-dasharray="65.29010580194655 314"
              transform="rotate(25.64351904816381 150 200)"/>

          <circle r="10" cx="50" cy="375" fill="#62929E" stroke-width="3px" stroke="white"/>
          <text x="75" y="375" font-size= "20" dominant-baseline="middle" text-anchor="start" class="title">
            Prolog: 20.79%
          </text> 

          
<circle r="50" cx="150" cy="200" fill="transparent"
              stroke="#4A6D7C"
              stroke-width="100"
              stroke-dasharray="49.33512141589021 314"
              transform="rotate(100.49841741982226 150 200)"/>

          <circle r="10" cx="50" cy="400" fill="#4A6D7C" stroke-width="3px" stroke="white"/>
          <text x="75" y="400" font-size= "20" dominant-baseline="middle" text-anchor="start" class="title">
            Haskell: 15.71%
          </text> 

          
<circle r="50" cx="150" cy="200" fill="transparent"
              stroke="#393A10"
              stroke-width="100"
              stroke-dasharray="35.036570949166766 314"
              transform="rotate(157.06097700491932 150 200)"/>

          <circle r="10" cx="50" cy="425" fill="#393A10" stroke-width="3px" stroke="white"/>
          <text x="75" y="425" font-size= "20" dominant-baseline="middle" text-anchor="start" class="title">
            Processing: 11.16%
          </text> 

          
<circle r="50" cx="150" cy="200" fill="transparent"
              stroke="#475657"
              stroke-width="100"
              stroke-dasharray="19.210642057227115 314"
              transform="rotate(197.23029401670289 150 200)"/>

          <circle r="10" cx="50" cy="450" fill="#475657" stroke-width="3px" stroke="white"/>
          <text x="75" y="450" font-size= "20" dominant-baseline="middle" text-anchor="start" class="title">
            JavaScript: 6.12%
          </text> 

          
<circle r="50" cx="150" cy="200" fill="transparent"
              stroke="#36311F"
              stroke-width="100"
              stroke-dasharray="44.26071260598203 314"
              transform="rotate(219.25523395492507 150 200)"/>

          <circle r="10" cx="50" cy="475" fill="#36311F" stroke-width="3px" stroke="white"/>
          <text x="75" y="475" font-size= "20" dominant-baseline="middle" text-anchor="start" class="title">
            Other: 14.10%
          </text> 

          

        <text x="150" y="525" font-size= "40" dominant-baseline="middle" text-anchor="middle" class="title">
          Lines
        </text> 
      <circle r="50" cx="450" cy="200" fill="transparent"
              stroke="#C6C5B9"
              stroke-width="100"
              stroke-dasharray="72.46153846153847 314"
              transform="rotate(-90 450 200)"/>

          <circle r="10" cx="350" cy="350" fill="#C6C5B9" stroke-width="3px" stroke="white"/>
          <text x="375" y="350" font-size= "20" dominant-baseline="middle" text-anchor="start" class="title">
            Java: 23.08%
          </text> 

          
<circle r="50" cx="450" cy="200" fill="transparent"
              stroke="#62929E"
              stroke-width="100"
              stroke-dasharray="70.91135409197759 314"
              transform="rotate(-6.92307692307692 450 200)"/>

          <circle r="10" cx="350" cy="375" fill="#62929E" stroke-width="3px" stroke="white"/>
          <text x="375" y="375" font-size= "20" dominant-baseline="middle" text-anchor="start" class="title">
            JavaScript: 22.58%
          </text> 

          
<circle r="50" cx="450" cy="200" fill="transparent"
              stroke="#4A6D7C"
              stroke-width="100"
              stroke-dasharray="53.54716172409606 314"
              transform="rotate(74.37656471103753 450 200)"/>

          <circle r="10" cx="350" cy="400" fill="#4A6D7C" stroke-width="3px" stroke="white"/>
          <text x="375" y="400" font-size= "20" dominant-baseline="middle" text-anchor="start" class="title">
            CSS: 17.05%
          </text> 

          
<circle r="50" cx="450" cy="200" fill="transparent"
              stroke="#393A10"
              stroke-width="100"
              stroke-dasharray="24.153846153846157 314"
              transform="rotate(135.76821509535148 450 200)"/>

          <circle r="10" cx="350" cy="425" fill="#393A10" stroke-width="3px" stroke="white"/>
          <text x="375" y="425" font-size= "20" dominant-baseline="middle" text-anchor="start" class="title">
            Processing: 7.69%
          </text> 

          
<circle r="50" cx="450" cy="200" fill="transparent"
              stroke="#475657"
              stroke-width="100"
              stroke-dasharray="24.153846153846157 314"
              transform="rotate(163.46052278765916 450 200)"/>

          <circle r="10" cx="350" cy="450" fill="#475657" stroke-width="3px" stroke="white"/>
          <text x="375" y="450" font-size= "20" dominant-baseline="middle" text-anchor="start" class="title">
            Elm: 7.69%
          </text> 

          
<circle r="50" cx="450" cy="200" fill="transparent"
              stroke="#36311F"
              stroke-width="100"
              stroke-dasharray="68.77225341469558 314"
              transform="rotate(191.15283047996684 450 200)"/>

          <circle r="10" cx="350" cy="475" fill="#36311F" stroke-width="3px" stroke="white"/>
          <text x="375" y="475" font-size= "20" dominant-baseline="middle" text-anchor="start" class="title">
            Other: 21.90%
          </text> 

          

        <text x="450" y="525" font-size= "40" dominant-baseline="middle" text-anchor="middle" class="title">
          Repos
        </text> 
      
      <g transform="translate(625, 132) scale(1.5)" dominant-baseline="middle" text-anchor="middle">
        <svg xmlns="http://www.w3.org/2000/svg" viewBox="0 0 24 24" width="24" height="24">
          <path d="M3 2.75A2.75 2.75 0 0 1 5.75 0h14.5a.75.75 0 0 1 .75.75v20.5a.75.75 0 0 1-.75.75h-6a.75.75 0 0 1 0-1.5h5.25v-4H6A1.5 1.5 0 0 0 4.5 18v.75c0 .716.43 1.334 1.05 1.605a.75.75 0 0 1-.6 1.374A3.251 3.251 0 0 1 3 18.75ZM19.5 1.5H5.75c-.69 0-1.25.56-1.25 1.25v12.651A2.989 2.989 0 0 1 6 15h13.5Z"
            fill="white">
          </path>
          <path d="M7 18.25a.25.25 0 0 1 .25-.25h5a.25.25 0 0 1 .25.25v5.01a.25.25 0 0 1-.397.201l-2.206-1.604a.25.25 0 0 0-.294 0L7.397 23.46a.25.25 0 0 1-.397-.2v-5.01Z"
            fill="white">
          </path>
        </svg>
      </g>

      <text x="750" y="150" font-size="20" dominant-baseline="middle" text-anchor="end" class="title">
        17
      </text>

      <g transform="translate(625, 182) scale(1.5)" dominant-baseline="middle" text-anchor="middle">
        <svg xmlns="http://www.w3.org/2000/svg" viewBox="0 0 24 24" width="24" height="24">
          <path d="M16.944 11h4.306a.75.75 0 0 1 0 1.5h-4.306a5.001 5.001 0 0 1-9.888 0H2.75a.75.75 0 0 1 0-1.5h4.306a5.001 5.001 0 0 1 9.888 0Zm-1.444.75a3.5 3.5 0 1 0-7 0 3.5 3.5 0 0 0 7 0Z"
            fill="white">
          </path>
        </svg>
      </g>

      <text x="750" y="200" font-size="20" dominant-baseline="middle" text-anchor="end" class="title">
        430
      </text>

      <g transform="translate(625, 232) scale(1.5)" dominant-baseline="middle" text-anchor="middle">
        <svg xmlns="http://www.w3.org/2000/svg" viewBox="0 0 24 24" width="24" height="24">
          <path d="M12 .25a.75.75 0 0 1 .673.418l3.058 6.197 6.839.994a.75.75 0 0 1 .415 1.279l-4.948 4.823 1.168 6.811a.751.751 0 0 1-1.088.791L12 18.347l-6.117 3.216a.75.75 0 0 1-1.088-.79l1.168-6.812-4.948-4.823a.75.75 0 0 1 .416-1.28l6.838-.993L11.328.668A.75.75 0 0 1 12 .25Zm0 2.445L9.44 7.882a.75.75 0 0 1-.565.41l-5.725.832 4.143 4.038a.748.748 0 0 1 .215.664l-.978 5.702 5.121-2.692a.75.75 0 0 1 .698 0l5.12 2.692-.977-5.702a.748.748 0 0 1 .215-.664l4.143-4.038-5.725-.831a.75.75 0 0 1-.565-.41L12 2.694Z"
            fill="white">
          </path>
        </svg>
      </g>

      <text x="750" y="250" font-size="20" dominant-baseline="middle" text-anchor="end" class="title">
        0
      </text>

      <g transform="translate(625, 282) scale(1.5)" dominant-baseline="middle" text-anchor="middle">
        <svg xmlns="http://www.w3.org/2000/svg" viewBox="0 0 24 24" width="24" height="24">
        <path d="M16 19.25a3.25 3.25 0 1 1 6.5 0 3.25 3.25 0 0 1-6.5 0Zm-14.5 0a3.25 3.25 0 1 1 6.5 0 3.25 3.25 0 0 1-6.5 0Zm0-14.5a3.25 3.25 0 1 1 6.5 0 3.25 3.25 0 0 1-6.5 0ZM4.75 3a1.75 1.75 0 1 0 .001 3.501A1.75 1.75 0 0 0 4.75 3Zm0 14.5a1.75 1.75 0 1 0 .001 3.501A1.75 1.75 0 0 0 4.75 17.5Zm14.5 0a1.75 1.75 0 1 0 .001 3.501 1.75 1.75 0 0 0-.001-3.501Z"
          fill="white">
        </path>
        <path d="M13.405 1.72a.75.75 0 0 1 0 1.06L12.185 4h4.065A3.75 3.75 0 0 1 20 7.75v8.75a.75.75 0 0 1-1.5 0V7.75a2.25 2.25 0 0 0-2.25-2.25h-4.064l1.22 1.22a.75.75 0 0 1-1.061 1.06l-2.5-2.5a.75.75 0 0 1 0-1.06l2.5-2.5a.75.75 0 0 1 1.06 0ZM4.75 7.25A.75.75 0 0 1 5.5 8v8A.75.75 0 0 1 4 16V8a.75.75 0 0 1 .75-.75Z"
          fill="white">
        </path>
       </svg>
      </g>

      <text x="750" y="300" font-size="20" dominant-baseline="middle" text-anchor="end" class="title">
        0
      </text>

      <g transform="translate(625, 332) scale(1.5)" dominant-baseline="middle" text-anchor="middle">
        <svg xmlns="http://www.w3.org/2000/svg" viewBox="0 0 24 24" width="24" height="24">
          <path d="M12 1c6.075 0 11 4.925 11 11s-4.925 11-11 11S1 18.075 1 12 5.925 1 12 1ZM2.5 12a9.5 9.5 0 0 0 9.5 9.5 9.5 9.5 0 0 0 9.5-9.5A9.5 9.5 0 0 0 12 2.5 9.5 9.5 0 0 0 2.5 12Zm9.5 2a2 2 0 1 1-.001-3.999A2 2 0 0 1 12 14Z"
            fill="white">
          </path>
        </svg>
      </g>

      <text x="750" y="350" font-size="20" dominant-baseline="middle" text-anchor="end" class="title">
        3
      </text>

       
          <circle r="50" cx="150" cy="200" style="fill:#36454F;stroke-width:5;stroke:white"/>
          <circle r="50" cx="450" cy="200" style="fill:#36454F;stroke-width:5;stroke:white"/>
        </g>
                
        
      </svg>